<mxfile host="app.diagrams.net" agent="Mozilla/5.0 (X11; Linux x86_64; rv:128.0) Gecko/20100101 Firefox/128.0" version="27.1.6">
  <diagram name="Page-1" id="iPjXWNB9O1CGNaa3s1eS">
    <mxGraphModel dx="2276" dy="799" grid="1" gridSize="10" guides="1" tooltips="1" connect="1" arrows="1" fold="1" page="1" pageScale="1" pageWidth="850" pageHeight="1100" math="0" shadow="0">
      <root>
        <mxCell id="0" />
        <mxCell id="1" parent="0" />
        <mxCell id="2o8GzfUMsnwNK7e31epK-1" value="&lt;font style=&quot;font-size: 13px;&quot;&gt;&lt;font style=&quot;font-size: 14px;&quot;&gt;Frame&lt;/font&gt;&lt;br&gt;&lt;/font&gt;" style="shape=umlFrame;whiteSpace=wrap;html=1;pointerEvents=0;" vertex="1" parent="1">
          <mxGeometry x="-30" y="210" width="720" height="220" as="geometry" />
        </mxCell>
        <mxCell id="2o8GzfUMsnwNK7e31epK-2" value="&lt;div&gt;&lt;font style=&quot;font-size: 16px;&quot;&gt;Command&lt;/font&gt;&lt;/div&gt;&lt;div&gt;&lt;font style=&quot;font-size: 16px;&quot;&gt;8-bit&lt;/font&gt;&lt;/div&gt;&lt;div&gt;&lt;font style=&quot;font-size: 16px;&quot;&gt;0x01- write&lt;/font&gt;&lt;/div&gt;&lt;div&gt;&lt;font style=&quot;font-size: 16px;&quot;&gt;&lt;font&gt;0x02- read&lt;/font&gt;&lt;font&gt;&lt;br&gt;&lt;/font&gt;&lt;/font&gt;&lt;/div&gt;" style="html=1;whiteSpace=wrap;" vertex="1" parent="1">
          <mxGeometry x="45" y="275" width="190" height="90" as="geometry" />
        </mxCell>
        <mxCell id="2o8GzfUMsnwNK7e31epK-3" value="&lt;div&gt;&lt;font style=&quot;font-size: 16px;&quot;&gt;Address&lt;/font&gt;&lt;/div&gt;&lt;div&gt;&lt;font style=&quot;font-size: 16px;&quot;&gt;4-bit&lt;/font&gt;&lt;/div&gt;&lt;div&gt;&lt;font style=&quot;font-size: 16px;&quot;&gt;&lt;font&gt;13 addressable LED registers&lt;/font&gt;&lt;font&gt;&lt;br&gt;&lt;/font&gt;&lt;/font&gt;&lt;/div&gt;" style="html=1;whiteSpace=wrap;" vertex="1" parent="1">
          <mxGeometry x="235" y="275" width="190" height="90" as="geometry" />
        </mxCell>
        <mxCell id="2o8GzfUMsnwNK7e31epK-4" value="&lt;div&gt;&lt;font style=&quot;font-size: 16px;&quot;&gt;Payload&lt;/font&gt;&lt;/div&gt;&lt;div&gt;&lt;font style=&quot;font-size: 16px;&quot;&gt;8-bit&lt;/font&gt;&lt;/div&gt;&lt;div&gt;&lt;font style=&quot;font-size: 16px;&quot;&gt;&lt;font&gt;LED brightness level&lt;/font&gt;&lt;font&gt;&lt;br&gt;&lt;/font&gt;&lt;/font&gt;&lt;/div&gt;" style="html=1;whiteSpace=wrap;" vertex="1" parent="1">
          <mxGeometry x="425" y="275" width="190" height="90" as="geometry" />
        </mxCell>
      </root>
    </mxGraphModel>
  </diagram>
</mxfile>
